<svg xmlns="http://www.w3.org/2000/svg" width="77" height="84" viewBox="0 0 77 84"><defs><style>.a{fill:none;}.b{fill:#f48322;}.c{fill:#fefefe;}</style></defs><g transform="translate(660.1 -3379.782)"><rect class="a" width="77" height="84" transform="translate(-660.1 3379.782)"/><path class="b" d="M1044.315,3417.526c.719-1.45,1.139-3.08,1.739-4.53a131.293,131.293,0,0,1,11.622-21.8c1.438-2.175,2.876-4.409,4.374-6.583a2.374,2.374,0,0,1,1.318-.906,54.013,54.013,0,0,1,5.391-.422,203.358,203.358,0,0,1,23.484-.3c3.475.12,6.95.3,10.424.725a1.917,1.917,0,0,1,1.318.724c6.41,9.483,12.341,19.145,16.415,30.017,1.318,3.2,1.318,3.2-.719,6.281a162.023,162.023,0,0,1-26,31.283,91.884,91.884,0,0,1-9.285,7.912c-1.617,1.147-1.438,1.147-3.055,0a104.549,104.549,0,0,1-15.936-14.193,141.229,141.229,0,0,1-20.371-26.754,1.248,1.248,0,0,0-.719-.846Zm17.674-13.348h0l-.12-.12a.117.117,0,0,0,.12.12c-.12.424.12.906.12,1.449,2.037,7.188,4.075,14.314,6.111,21.5a49.3,49.3,0,0,0,1.738,5.556c3.474-.6,6.83-1.148,10.3-1.751.42-1.449.9-2.779,1.318-4.107-1.617-1.631-3.655-2.475-5.093-4.227a92.777,92.777,0,0,1,12.641.121,17.053,17.053,0,0,0-1.856,1.631c-1.019.905-2.457,1.328-2.876,2.475-.42,1.329.719,2.658,1.018,3.925a.615.615,0,0,0,.12.3c3.356.6,6.83,1.329,10.3,1.751,2.756-9.663,5.392-19.024,8.148-28.385-.12,0-.12-.122-.3-.122-3.9,2.778-7.849,5.437-11.743,8.033.12,3.08.3,5.979.419,8.939-.12,0-.12,0-.3.12-1.617-4.711-3.175-9.361-4.912-14.073,5.631-1.872,11.023-3.8,16.535-5.676v-.3c-.121-.12-.3-.12-.42-.3-2.336-1.329-4.792-2.657-7.13-3.925a2.271,2.271,0,0,0-2.156,0c-3.356,1.147-6.65,2.174-9.886,3.382a3.936,3.936,0,0,1-2.635,0c-3.356-1.147-6.65-2.175-9.885-3.382a2.743,2.743,0,0,0-2.637.3c-1.976,1.208-4.013,2.417-6.051,3.563a1.328,1.328,0,0,0-.9.906c5.511,1.873,11.024,3.8,16.535,5.678-1.617,4.71-3.175,9.24-4.913,14.071a2.235,2.235,0,0,1-.3-1.147c.12-2.174.12-4.228.3-6.463a2.078,2.078,0,0,0-1.018-2.174c-1.318-.905-2.635-1.751-3.894-2.656A30.507,30.507,0,0,0,1061.989,3404.178Zm29.057,30.318a27.553,27.553,0,0,0-16.236,0,56.934,56.934,0,0,0,2.157,5.436h12.042C1089.728,3438.12,1090.327,3436.369,1091.046,3434.5Z" transform="translate(-1704.415 0)"/><path class="c" d="M1056.729,3400.022c2.445,1.325,4.474,3.071,6.8,4.517,1.313.9,2.625,1.868,3.877,2.65a1.947,1.947,0,0,1,1.015,2.168c-.121,2.168-.3,4.215-.3,6.443a1.365,1.365,0,0,0,.3,1.145c1.61-4.7,3.161-9.215,4.891-14.032-5.488-1.866-10.976-3.793-16.464-5.66.119-.6.6-.722.894-.9,2.029-1.144,4.057-2.349,6.084-3.492a2.728,2.728,0,0,1,2.626-.3c3.34,1.145,6.5,2.168,9.842,3.374a3.939,3.939,0,0,0,2.626,0c3.34-1.145,6.5-2.349,9.843-3.374a2.268,2.268,0,0,1,2.147,0c2.326,1.325,4.772,2.651,7.1,3.916.119.12.3.12.418.3v.3c-5.489,1.868-10.857,3.794-16.464,5.662,1.61,4.7,3.34,9.334,4.891,14.031.119,0,.119,0,.3-.12-.119-2.891-.3-5.841-.418-8.913,3.877-2.649,7.815-5.419,11.692-8.008.119,0,.119.12.3.12-2.624,9.333-5.369,18.789-8.113,28.3-3.459-.422-6.919-1.145-10.259-1.748-.12-.12-.12-.12-.12-.3-.3-1.325-1.43-2.65-1.014-3.914.418-1.145,1.85-1.627,2.864-2.47a11.443,11.443,0,0,0,1.848-1.625c-1.133-.421-9.245-.6-12.585-.12,1.43,1.746,3.459,2.771,5.069,4.216-.417,1.324-.895,2.649-1.312,4.095-3.341.6-6.8,1.145-10.26,1.746a45.036,45.036,0,0,1-1.73-5.54c-2.029-7.105-4.057-14.272-6.086-21.438-.119,0-.3-.422-.3-1.025Z" transform="translate(-1699.063 4.168)"/><path class="c" d="M1082.054,3419.182c-.723,1.867-1.325,3.674-2.048,5.421h-12.1a53.6,53.6,0,0,1-2.168-5.421A27.912,27.912,0,0,1,1082.054,3419.182Z" transform="translate(-1695.382 15.324)"/></g><script xmlns=""/></svg>