<svg xmlns="http://www.w3.org/2000/svg" width="84" height="81.9" viewBox="0 0 84 81.9">
  <g id="tech-aem" transform="translate(-393 -3920.1)">
    <rect id="Rectangle_644" data-name="Rectangle 644" width="59" height="59" transform="translate(406 3931)" fill="#fff"/>
    <path id="tech-aem-2" data-name="tech-aem" d="M69.125,0H14.875A14.875,14.875,0,0,0,0,14.875v52.15A14.875,14.875,0,0,0,14.875,81.9h54.25A14.875,14.875,0,0,0,84,67.025V14.875A14.875,14.875,0,0,0,69.125,0ZM65.316,61.582H55.339a2.185,2.185,0,0,1-2.046-1.319L42.461,34.938a.477.477,0,0,0-.914-.012L34.8,51.006a.572.572,0,0,0,.527.794h7.42a1.144,1.144,0,0,1,1.054.7l3.248,7.229a1.334,1.334,0,0,1-1.227,1.855H18.807a1.231,1.231,0,0,1-1.125-1.716L34.864,18.95a2.323,2.323,0,0,1,2.181-1.45h9.91a2.32,2.32,0,0,1,2.181,1.45l17.3,40.916A1.231,1.231,0,0,1,65.316,61.582Z" transform="translate(393 3920.1)" fill="#fa0f00"/>
  </g>
<script xmlns=""/></svg>