<svg xmlns="http://www.w3.org/2000/svg" width="70.001" height="84" viewBox="0 0 70.001 84"><defs><style>.a{fill:none;}</style></defs><g transform="translate(-702.999 -3703)"><rect class="a" width="70" height="84" transform="translate(703 3703)"/><g transform="translate(1773 330.747)"><path d="M638.786,3436.73h0a4.409,4.409,0,0,1-4.372-4.4v-11.62a4.408,4.408,0,0,1,4.372-4.4h0a4.408,4.408,0,0,1,4.371,4.4v11.62A4.408,4.408,0,0,1,638.786,3436.73Zm17.305-.421V3416.2a4.408,4.408,0,0,0-4.371-4.4h0a4.408,4.408,0,0,0-4.372,4.4v20.111a4.409,4.409,0,0,0,4.372,4.4h0A4.409,4.409,0,0,0,656.091,3436.309Zm12.874,4.455v-28.72a4.409,4.409,0,0,0-4.371-4.4h0a4.409,4.409,0,0,0-4.371,4.4v28.72a4.409,4.409,0,0,0,4.371,4.4h0A4.37,4.37,0,0,0,668.965,3440.764Zm12.934,4.094v-37.452a4.408,4.408,0,0,0-4.372-4.4h0a4.408,4.408,0,0,0-4.371,4.4v37.452a4.407,4.407,0,0,0,4.371,4.394h0A4.407,4.407,0,0,0,681.9,3444.859Zm19.161-47.265-58.322-17.16a4.964,4.964,0,0,0-1.318-.18,4.625,4.625,0,0,0-4.611,4.635v27.7h3.473v-27.7a1.138,1.138,0,0,1,1.139-1.143.76.76,0,0,1,.359.06l58.322,17.1a1.156,1.156,0,0,1,.839,1.084V3438.9a1.14,1.14,0,0,1-1.139,1.145.744.744,0,0,1-.359-.062l-13.293-3.913v3.613l12.335,3.612a5,5,0,0,0,1.318.181,4.625,4.625,0,0,0,4.611-4.636V3402.05A4.654,4.654,0,0,0,701.061,3397.594Z" transform="translate(-1704.415)"/></g></g><script xmlns=""/></svg>