<svg xmlns="http://www.w3.org/2000/svg" xmlns:xlink="http://www.w3.org/1999/xlink" width="120.337" height="84" viewBox="0 0 120.337 84"><defs><style>.a{fill:none;}.b{fill:#699f63;}.b,.c,.d,.e,.f,.g,.h,.i,.j,.k{stroke:rgba(0,0,0,0);}.c{fill:#333;}.d{fill:url(#a);}.e{fill:rgba(0,0,0,0);}.f{fill:url(#b);}.g{fill:url(#c);}.h{fill:url(#d);}.i{fill:url(#e);}.j{fill:url(#f);}.k{fill:url(#g);}</style><linearGradient id="a" x1="0.682" y1="-309.175" x2="0.279" y2="-309.896" gradientUnits="objectBoundingBox"><stop offset="0" stop-color="#41873f"/><stop offset="0.329" stop-color="#418b3d"/><stop offset="0.635" stop-color="#419637"/><stop offset="0.932" stop-color="#3fa92d"/><stop offset="1" stop-color="#3fae2a"/></linearGradient><linearGradient id="b" x1="0.432" y1="-311.37" x2="1.592" y2="-310.633" gradientUnits="objectBoundingBox"><stop offset="0.138" stop-color="#41873f"/><stop offset="0.403" stop-color="#54a044"/><stop offset="0.714" stop-color="#66b848"/><stop offset="0.908" stop-color="#6cc04a"/></linearGradient><linearGradient id="c" x1="-51.882" y1="-78259.75" x2="62.601" y2="-78259.75" gradientUnits="objectBoundingBox"><stop offset="0.092" stop-color="#6cc04a"/><stop offset="0.286" stop-color="#66b848"/><stop offset="0.597" stop-color="#54a044"/><stop offset="0.862" stop-color="#41873f"/></linearGradient><linearGradient id="d" x1="-0.045" y1="-310.492" x2="1.015" y2="-310.492" xlink:href="#c"/><linearGradient id="e" x1="-456.722" y1="-52396.801" x2="1.396" y2="-52396.801" xlink:href="#c"/><linearGradient id="f" x1="-1.038" y1="-1130.779" x2="1.006" y2="-1130.779" xlink:href="#c"/><linearGradient id="g" x1="1.297" y1="-1128.156" x2="0.047" y2="-1132.299" xlink:href="#a"/></defs><g transform="translate(1036.584 -3270.762)"><rect class="a" width="119" height="84" transform="translate(-1036.084 3270.762)"/><path class="b" d="M711.063,3334.273a2.624,2.624,0,0,1-1.15-.287l-3.616-2.127c-.517-.287-.287-.4-.115-.459a5.666,5.666,0,0,0,1.607-.748c.057-.058.172,0,.287,0l2.757,1.667a.367.367,0,0,0,.344,0l10.791-6.207a.316.316,0,0,0,.172-.287v-12.47a.315.315,0,0,0-.172-.287l-10.791-6.207a.365.365,0,0,0-.344,0l-10.792,6.207a.315.315,0,0,0-.172.287v12.47a.316.316,0,0,0,.172.287l2.927,1.724c1.607.8,2.583-.115,2.583-1.092v-12.3a.272.272,0,0,1,.287-.289h1.377a.272.272,0,0,1,.287.289v12.3c0,2.127-1.148,3.391-3.214,3.391a4.489,4.489,0,0,1-2.468-.69l-2.812-1.608a2.3,2.3,0,0,1-1.148-1.953v-12.471a2.3,2.3,0,0,1,1.148-1.955l10.791-6.264a2.233,2.233,0,0,1,2.24,0l10.79,6.264a2.3,2.3,0,0,1,1.148,1.955v12.471a2.3,2.3,0,0,1-1.148,1.953l-10.79,6.206A2.027,2.027,0,0,1,711.063,3334.273Z" transform="translate(-1688.137 15.566)"/><path class="b" d="M710.537,3322.5c-4.708,0-5.684-2.183-5.684-3.965a.271.271,0,0,1,.287-.287h1.379a.271.271,0,0,1,.287.287c.229,1.437.861,2.127,3.673,2.127,2.3,0,3.214-.517,3.214-1.724,0-.69-.287-1.207-3.788-1.553-2.927-.287-4.765-.918-4.765-3.332,0-2.184,1.838-3.449,4.88-3.449,3.444,0,5.166,1.207,5.4,3.793,0,.115,0,.172-.057.229a.3.3,0,0,1-.23.115h-1.378a.263.263,0,0,1-.287-.229c-.344-1.494-1.148-1.953-3.386-1.953-2.468,0-2.755.861-2.755,1.494,0,.8.344,1.035,3.673,1.437,3.329.459,4.879,1.035,4.879,3.391C715.875,3321.182,713.923,3322.5,710.537,3322.5Z" transform="translate(-1684.282 18.716)"/><path class="b" d="M720.013,3310.6a2.066,2.066,0,1,1-4.132,0,2.066,2.066,0,1,1,4.132,0Zm-3.845,0a1.722,1.722,0,1,0,1.722-1.723A1.728,1.728,0,0,0,716.168,3310.6Zm.976-1.149h.8c.287,0,.8,0,.8.633a.57.57,0,0,1-.459.574c.344,0,.344.229.4.518a2.063,2.063,0,0,0,.115.631h-.517c0-.115-.115-.689-.115-.746-.057-.116-.057-.174-.23-.174h-.4v.92h-.459v-2.356Zm.4,1.035h.344a.325.325,0,0,0,.344-.344c0-.344-.23-.344-.344-.344h-.4v.688Z" transform="translate(-1678.203 17.573)"/><path class="c" d="M693.931,3295.258a1.4,1.4,0,0,0-.689-1.207l-11.422-6.608a1.154,1.154,0,0,0-.631-.174h-.115a1.155,1.155,0,0,0-.631.174l-11.423,6.608a1.4,1.4,0,0,0-.689,1.207v17.757a.632.632,0,0,0,.344.574.73.73,0,0,0,.689,0l6.83-3.908a1.4,1.4,0,0,0,.689-1.207V3300.2a1.4,1.4,0,0,1,.689-1.207l2.871-1.668a1.466,1.466,0,0,1,1.378,0l2.87,1.668a1.4,1.4,0,0,1,.689,1.207v8.274a1.476,1.476,0,0,0,.689,1.207l6.773,3.908a.732.732,0,0,0,.689,0,.632.632,0,0,0,.344-.574Z" transform="translate(-1704.415 5.85)"/><path class="c" d="M726.709,3276.743a.724.724,0,0,0-.689,0,.632.632,0,0,0-.344.574V3294.9a.483.483,0,0,1-.23.4.347.347,0,0,1-.459,0l-2.87-1.666a1.464,1.464,0,0,0-1.377,0l-11.423,6.608a1.4,1.4,0,0,0-.689,1.207v13.218a1.4,1.4,0,0,0,.689,1.205l11.423,6.61a1.464,1.464,0,0,0,1.377,0l11.422-6.61a1.4,1.4,0,0,0,.689-1.205v-32.93a1.4,1.4,0,0,0-.689-1.206Zm-1.033,33.617a.316.316,0,0,1-.172.287l-3.9,2.241a.365.365,0,0,1-.344,0l-3.9-2.241a.316.316,0,0,1-.172-.287v-4.539a.317.317,0,0,1,.172-.289l3.9-2.24a.357.357,0,0,1,.344,0l3.9,2.24a.317.317,0,0,1,.172.289Z" transform="translate(-1682.201)"/><path class="c" d="M753.629,3299.735a1.4,1.4,0,0,0,.689-1.207v-3.217a1.476,1.476,0,0,0-.689-1.207l-11.307-6.551a1.464,1.464,0,0,0-1.378,0l-11.423,6.608a1.4,1.4,0,0,0-.689,1.207v13.216a1.4,1.4,0,0,0,.689,1.207l11.366,6.494a1.452,1.452,0,0,0,1.378,0l6.888-3.85a.631.631,0,0,0,.344-.574.8.8,0,0,0-.344-.633l-11.481-6.608a.631.631,0,0,1-.344-.574v-4.137a.633.633,0,0,1,.344-.576l3.56-2.069a.732.732,0,0,1,.689,0l3.559,2.069a.633.633,0,0,1,.344.576v3.275a.635.635,0,0,0,.344.575.732.732,0,0,0,.689,0Z" transform="translate(-1671.064 5.912)"/><path class="b" d="M737.789,3294.99a.255.255,0,0,1,.287,0l2.181,1.264a.3.3,0,0,1,.115.229v2.529a.3.3,0,0,1-.115.229l-2.181,1.264a.255.255,0,0,1-.287,0l-2.183-1.264a.3.3,0,0,1-.115-.229v-2.529a.3.3,0,0,1,.115-.229Z" transform="translate(-1667.393 10.083)"/><path class="d" d="M701.93,3287.591a1.464,1.464,0,0,0-1.378,0l-11.366,6.608a1.4,1.4,0,0,0-.689,1.207v13.159a1.474,1.474,0,0,0,.689,1.207l11.366,6.551a1.456,1.456,0,0,0,1.378,0l11.364-6.551a1.4,1.4,0,0,0,.689-1.207v-13.216a1.478,1.478,0,0,0-.689-1.207Z" transform="translate(-1693.298 5.932)"/><g transform="translate(-1004.685 3293.385)"><path class="e" d="M700.512,3287.578l-11.308,6.608a1.355,1.355,0,0,0-.631,1.207v13.159a1.128,1.128,0,0,0,.287.862l12.743-21.894A1.44,1.44,0,0,0,700.512,3287.578Z" transform="translate(-688.572 -3287.441)"/><path class="e" d="M696.972,3313.968c.115-.057.23-.057.344-.116l11.307-6.551a1.352,1.352,0,0,0,.631-1.207v-13.216a1.289,1.289,0,0,0-.344-.978Z" transform="translate(-683.942 -3284.982)"/><path class="f" d="M713.25,3294.178l-11.422-6.608a.813.813,0,0,0-.344-.115l-12.8,21.894a1.027,1.027,0,0,0,.4.287l11.423,6.551a1.3,1.3,0,0,0,1.033.115l12-22.009A.967.967,0,0,1,713.25,3294.178Z" transform="translate(-688.511 -3287.433)"/></g><path class="e" d="M701.93,3287.591a1.464,1.464,0,0,0-1.378,0l-11.366,6.608a1.4,1.4,0,0,0-.689,1.207v13.159a1.474,1.474,0,0,0,.689,1.207l11.366,6.551a1.456,1.456,0,0,0,1.378,0l11.364-6.551a1.4,1.4,0,0,0,.689-1.207v-13.216a1.478,1.478,0,0,0-.689-1.207Z" transform="translate(-1693.298 5.932)"/><g transform="translate(-1004.685 3291.109)"><path class="e" d="M709.259,3308.507v-13.159a1.3,1.3,0,0,0-.631-1.207l-11.364-6.551a2.8,2.8,0,0,0-.4-.172l12.4,21.377C709.316,3308.739,709.259,3308.622,709.259,3308.507Z" transform="translate(-684.003 -3285.177)"/><path class="e" d="M689.2,3291.789a1.355,1.355,0,0,0-.631,1.207v13.159a1.421,1.421,0,0,0,.631,1.207l11.366,6.551a1.177,1.177,0,0,0,.861.174l-12.227-22.3Z" transform="translate(-688.572 -3282.767)"/><path class="g" d="M696.108,3285.973l-.172.115h.23Z" transform="translate(-684.513 -3285.973)"/><path class="h" d="M713.087,3309.7a1.467,1.467,0,0,0,.689-.861l-12.512-21.377a1.431,1.431,0,0,0-.976.172l-11.308,6.494,12.227,22.3a.913.913,0,0,0,.516-.174Z" transform="translate(-688.348 -3285.164)"/><path class="i" d="M705.207,3301.684l-.057-.115v.172Z" transform="translate(-679.434 -3277.375)"/><path class="j" d="M708.742,3302.1l-11.365,6.551a.913.913,0,0,1-.516.174l.287.4,12.685-7.3v-.172l-.344-.517A1.565,1.565,0,0,1,708.742,3302.1Z" transform="translate(-684.003 -3277.559)"/><path class="k" d="M708.742,3302.1l-11.365,6.551a.913.913,0,0,1-.516.174l.287.4,12.685-7.3v-.172l-.344-.517A1.565,1.565,0,0,1,708.742,3302.1Z" transform="translate(-684.003 -3277.559)"/></g><path class="e" d="M701.93,3287.591a1.464,1.464,0,0,0-1.378,0l-11.366,6.608a1.4,1.4,0,0,0-.689,1.207v13.159a1.474,1.474,0,0,0,.689,1.207l11.366,6.551a1.456,1.456,0,0,0,1.378,0l11.364-6.551a1.4,1.4,0,0,0,.689-1.207v-13.216a1.478,1.478,0,0,0-.689-1.207Z" transform="translate(-1693.298 5.932)"/></g><script xmlns=""/></svg>