<svg xmlns="http://www.w3.org/2000/svg" xmlns:xlink="http://www.w3.org/1999/xlink" width="34" height="84" viewBox="0 0 34 84"><defs><style>.a{fill:none;}.b{fill:url(#a);}.c{fill:url(#b);}.d{fill:url(#c);}</style><linearGradient id="a" x1="-921.274" y1="-229.789" x2="-923.639" y2="-229.792" gradientUnits="objectBoundingBox"><stop offset="0.231" stop-color="#999875"/><stop offset="0.563" stop-color="#9b9977"/><stop offset="0.683" stop-color="#a09f7e"/><stop offset="0.768" stop-color="#a9a889"/><stop offset="0.837" stop-color="#b7b69a"/><stop offset="0.896" stop-color="#c9c7b0"/><stop offset="0.948" stop-color="#deddcb"/><stop offset="0.994" stop-color="#f8f6eb"/><stop offset="1" stop-color="#fbf9ef"/></linearGradient><linearGradient id="b" x1="-541.83" y1="-231.369" x2="-543.831" y2="-232.278" gradientUnits="objectBoundingBox"><stop offset="0" stop-color="#48a547"/><stop offset="1" stop-color="#3f9143"/></linearGradient><linearGradient id="c" x1="-527.491" y1="-229.182" x2="-528.875" y2="-228.935" gradientUnits="objectBoundingBox"><stop offset="0" stop-color="#41a247"/><stop offset="0.352" stop-color="#4ba74b"/><stop offset="0.956" stop-color="#67b554"/><stop offset="1" stop-color="#69b655"/></linearGradient></defs><g transform="translate(709.174 -3270.927)"><rect class="a" width="34" height="84" transform="translate(-709.174 3270.927)"/><path class="b" d="M1009.5,3347.559l-2.029-.7s.232-10.316-3.418-11.072c-2.434-2.857.347-121.629,9.272-.408,0,0-3.013,1.516-3.593,4.138C1009.036,3342.138,1009.5,3347.559,1009.5,3347.559Z" transform="translate(-1699.903 3.368)"/><path class="c" d="M1009.018,3340.956s17.616-11.657,13.5-35.96c-4-17.6-13.385-23.429-14.37-25.645a27,27,0,0,1-2.2-4.312l.754,49.131C1006.7,3324.112,1005.136,3339.149,1009.018,3340.956Z" transform="translate(-1698.316 0.063)"/><path class="d" d="M1010.871,3341.655s-16.572-11.364-15.588-31.353c.928-20.048,12.632-29.9,14.892-31.645a4.775,4.775,0,0,0,1.623-3.729c1.043,2.215.869,33.276.986,36.889C1013.188,3325.92,1012.03,3338.975,1010.871,3341.655Z" transform="translate(-1704.415 0)"/></g><script xmlns=""/></svg>