<svg xmlns="http://www.w3.org/2000/svg" width="83" height="84" viewBox="0 0 83 84"><defs><style>.a{fill:none;}.b{fill:#3498db;}.c{fill:#fff;}</style></defs><g transform="translate(-1015 -3346)"><rect class="a" width="83" height="84" transform="translate(1015 3346)"/><g transform="translate(1838.122 74.93)"><path class="b" d="M963.168,3309.742l-17.49-30.459a6.522,6.522,0,0,0-5.532-3.213H905.165a6.448,6.448,0,0,0-5.534,3.213l-17.49,30.459a6.509,6.509,0,0,0,0,6.425l17.49,30.46a6.525,6.525,0,0,0,5.534,3.212h34.981a6.449,6.449,0,0,0,5.532-3.212l17.49-30.46A6.824,6.824,0,0,0,963.168,3309.742Z" transform="translate(-1704.415)"/><path class="c" d="M931.05,3323.852l-9.935-17.907,9.995-17.908a.823.823,0,0,0-.655-1.129h-6.068a.73.73,0,0,0-.653.416l-10.232,18.2c-.059.119-.059.18-.119.3,0-.119-.059-.18-.119-.3l-10.234-18.263a.808.808,0,0,0-.653-.418h-6.128a.82.82,0,0,0-.535,1.13l9.935,17.967-9.995,17.907a.82.82,0,0,0,.654,1.19h6.009a.731.731,0,0,0,.654-.416l10.234-18.264c.059-.119.059-.179.119-.3,0,.119.059.178.119.3l10.232,18.264a.806.806,0,0,0,.654.416h6.009A.825.825,0,0,0,931.05,3323.852Z" transform="translate(-1695.141 7.009)"/></g></g><script xmlns=""/></svg>