<svg xmlns="http://www.w3.org/2000/svg" width="65" height="84" viewBox="0 0 65 84"><defs><style>.a{fill:none;}.b,.c{fill:#509ee3;}.c{opacity:0.2;isolation:isolate;}</style></defs><g transform="translate(-1013 -3703)"><rect class="a" width="65" height="84" transform="translate(1013 3703)"/><g transform="translate(1981.847 333.215)"><ellipse class="b" cx="4.919" cy="4.976" rx="4.919" ry="4.976" transform="translate(-968.847 3386.757)"/><ellipse class="b" cx="4.919" cy="4.976" rx="4.919" ry="4.976" transform="translate(-968.847 3400.719)"/><ellipse class="c" cx="4.919" cy="4.976" rx="4.919" ry="4.976" transform="translate(-955.085 3386.757)"/><ellipse class="b" cx="4.919" cy="4.976" rx="4.919" ry="4.976" transform="translate(-955.085 3400.891)"/><ellipse class="c" cx="4.919" cy="4.976" rx="4.919" ry="4.976" transform="translate(-941.266 3386.757)"/><ellipse class="c" cx="4.919" cy="4.976" rx="4.919" ry="4.976" transform="translate(-941.266 3370.785)"/><ellipse class="c" cx="4.919" cy="4.976" rx="4.919" ry="4.976" transform="translate(-941.266 3400.891)"/><ellipse class="c" cx="4.919" cy="4.976" rx="4.919" ry="4.976" transform="translate(-927.446 3386.757)"/><ellipse class="b" cx="4.919" cy="4.976" rx="4.919" ry="4.976" transform="translate(-913.685 3386.757)"/><ellipse class="b" cx="4.919" cy="4.976" rx="4.919" ry="4.976" transform="translate(-927.446 3400.891)"/><ellipse class="b" cx="4.919" cy="4.976" rx="4.919" ry="4.976" transform="translate(-913.685 3400.891)"/><ellipse class="b" cx="4.919" cy="4.976" rx="4.919" ry="4.976" transform="translate(-968.847 3414.738)"/><ellipse class="c" cx="4.919" cy="4.976" rx="4.919" ry="4.976" transform="translate(-955.085 3414.853)"/><ellipse class="b" cx="4.919" cy="4.976" rx="4.919" ry="4.976" transform="translate(-941.266 3414.853)"/><ellipse class="c" cx="4.919" cy="4.976" rx="4.919" ry="4.976" transform="translate(-927.446 3414.853)"/><ellipse class="b" cx="4.919" cy="4.976" rx="4.919" ry="4.976" transform="translate(-913.685 3414.853)"/><ellipse class="b" cx="4.919" cy="4.976" rx="4.919" ry="4.976" transform="translate(-968.847 3428.756)"/><ellipse class="c" cx="4.919" cy="4.976" rx="4.919" ry="4.976" transform="translate(-955.085 3428.871)"/><ellipse class="c" cx="4.919" cy="4.976" rx="4.919" ry="4.976" transform="translate(-941.266 3428.871)"/><ellipse class="c" cx="4.919" cy="4.976" rx="4.919" ry="4.976" transform="translate(-941.266 3442.833)"/><ellipse class="c" cx="4.919" cy="4.976" rx="4.919" ry="4.976" transform="translate(-927.446 3428.871)"/><ellipse class="b" cx="4.919" cy="4.976" rx="4.919" ry="4.976" transform="translate(-913.685 3428.871)"/></g></g><script xmlns=""/></svg>