<svg xmlns="http://www.w3.org/2000/svg" width="80" height="84" viewBox="0 0 80 84"><defs><style>.a{fill:none;}.b{fill:#e0234e;}</style></defs><g transform="translate(923.505 -3272.156)"><rect class="a" width="80" height="84" transform="translate(-923.505 3272.156)"/><path class="b" d="M828.026,3274.156a4.48,4.48,0,0,0-1.587.294,4.629,4.629,0,0,1,1.939,2.711c0,.118.059.236.059.413,0,.117.058.236.058.354.059,1.826-.469,2.063-.881,3.123a4.483,4.483,0,0,0,.295,4.068,3.424,3.424,0,0,0,.234.471c-.764-5.245,3.584-6.012,4.407-7.661.058-1.416-1.116-2.359-2.056-3.066a4.968,4.968,0,0,0-2.468-.707Zm6.58,1.179a4.579,4.579,0,0,1-.059.59,1.621,1.621,0,0,1-.059.53c-.058.177-.058.354-.117.471a4.144,4.144,0,0,1-.176.472,1.76,1.76,0,0,1-.235.471c-.058.06-.117.177-.176.236s-.058.118-.117.177a1.748,1.748,0,0,0-.295.413c-.117.117-.234.294-.352.353h0a2.466,2.466,0,0,1-.411.354,11.154,11.154,0,0,1-1.409.884c-.117.119-.293.177-.411.3s-.293.236-.412.354a2.64,2.64,0,0,0-.352.413,112.514,112.514,0,0,1-.588.824,1.746,1.746,0,0,1-.234.473c-.059.177-.118.294-.176.471a1.711,1.711,0,0,0-.119.532.653.653,0,0,1-.058.294.354.354,0,0,1-.059.236v.884a1.625,1.625,0,0,0,.059.53,1.112,1.112,0,0,0,.117.472,4.032,4.032,0,0,0,.176.471.989.989,0,0,1,.117.3L824.5,3285c-.823-.235-1.587-.412-2.408-.647a10.072,10.072,0,0,0-1.292-.3c-1.235-.235-2.527-.411-3.76-.53h-.119q-1.85-.176-3.7-.177c-.881,0-1.821.06-2.7.118a27.229,27.229,0,0,0-3.758.472c-.295.059-.647.117-.94.176-.647.118-1.235.294-1.88.414-.295.058-.647.177-.94.236-.295.117-.588.294-.882.411a3.512,3.512,0,0,1-.7.3c-.059,0-.059,0-.117.058a5.676,5.676,0,0,0-.588.3.207.207,0,0,0-.119.06,6.125,6.125,0,0,0-.645.354,1.449,1.449,0,0,0-.411.234c-.059.06-.117.06-.176.119a2.344,2.344,0,0,1-.528.294,5.146,5.146,0,0,1-.471.3c-.117.117-.293.176-.41.294a.058.058,0,0,0-.059.059,1.778,1.778,0,0,0-.412.294l-.059.06a1.319,1.319,0,0,0-.293.236c-.059,0-.059.058-.117.058a.71.71,0,0,0-.295.3.058.058,0,0,1-.059.058l-.352.355-.058.058-.352.354a.058.058,0,0,1-.059.059,1.568,1.568,0,0,0-.295.354c-.058.06-.117.06-.117.119l-.352.354c0,.058-.059.058-.059.117a3.642,3.642,0,0,1-.469.473l-.059.058c-.352.354-.7.707-1.057,1a5.6,5.6,0,0,1-1.175.884,14.35,14.35,0,0,1-1.233.767c-.412.236-.823.413-1.294.648a9.012,9.012,0,0,1-1.35.471,25.719,25.719,0,0,1-2.527.59c-.176,0-.352.059-.528.059-.176.058-.352.058-.529.118a4.144,4.144,0,0,0-.471.177,1.192,1.192,0,0,0-.469.236,3.349,3.349,0,0,1-.471.294c-.117.119-.293.236-.41.353a3.555,3.555,0,0,0-.471.472c-.117.118-.235.294-.352.413a2.043,2.043,0,0,0-.293.471,1.294,1.294,0,0,0-.295.473c-.059.177-.176.353-.235.53l-.176.53c-.058.177-.058.354-.117.472v.058a1.815,1.815,0,0,0-.059.53c0,.119-.058.3-.058.413v.3c0,.118.058.294.058.412.059.119.059.236.118.355h0a1.243,1.243,0,0,0,.234.354,1.59,1.59,0,0,0,.295.354l.352.354a2.539,2.539,0,0,0,.411.353,4.655,4.655,0,0,0,1.233.883l.352.177h.059v.119a1.123,1.123,0,0,0,.117.471,4.46,4.46,0,0,0,.176.472l.176.354c0,.06.059.06.059.117.059.177.176.3.235.473a1.736,1.736,0,0,1,.293.413c.119.117.235.294.352.411a2.556,2.556,0,0,0,.412.354h.059a1.559,1.559,0,0,0,.352.3,3.239,3.239,0,0,0,.469.294,3.559,3.559,0,0,0,.471.236,1.069,1.069,0,0,0,.411.118.057.057,0,0,1,.058.059,2.588,2.588,0,0,0,.295.06,10.438,10.438,0,0,0,.059,2.534c.176.413,1.116-.824,2-2.3a11.818,11.818,0,0,0,0,3.594c.235.532,1.468-1.12,2.525-2.887a23.91,23.91,0,0,1,29.433,21.1,4.08,4.08,0,0,0-4.289-3.184,10.951,10.951,0,0,1-3.348,4.715,13.934,13.934,0,0,0-.235-4.125,13.671,13.671,0,0,1-2.585,5.245,5.814,5.814,0,0,1-4.935-2.239,1.327,1.327,0,0,1-.176-.294c-.058-.117-.117-.3-.176-.413a1.106,1.106,0,0,1-.117-.413v-.766a1.107,1.107,0,0,1,.117-.411c.059-.119.059-.3.119-.413a1.449,1.449,0,0,1,.234-.413c.354-1,.354-1.827-.293-2.3a3.311,3.311,0,0,1-.411-.236,2.536,2.536,0,0,0-.293-.058c-.059,0-.119-.059-.176-.059-.118-.06-.295-.06-.411-.118a1,1,0,0,0-.411-.059c-.117,0-.293-.06-.469-.06h-.295a1.272,1.272,0,0,0-.469.06c-.119,0-.295.059-.412.059-.117.058-.295.058-.411.118s-.293.117-.412.177a3.454,3.454,0,0,0-.412.236c-4.817,3.123-1.938,10.55,1.352,12.671a10.049,10.049,0,0,0-2.878.766l-.059.06a24.445,24.445,0,0,0,2.761,1.415c1.351.412,2.7.824,3.348,1h0a19.361,19.361,0,0,0,5.228.354,19.709,19.709,0,0,0,18.036-16.8c.059.177.059.354.117.53.059.354.118.766.178,1.179h0a1.665,1.665,0,0,1,.058.53v.058c0,.178.059.354.059.531,0,.235.059.471.059.707v2.71c0,.178-.059.3-.059.472v.177c0,.236-.059.413-.059.589h0c-.058.177-.058.413-.117.59v.058c-.059.177-.059.355-.118.532v.058c-.058.177-.058.354-.117.53v.06c-.059.236-.117.413-.176.589v.06c-.059.234-.117.412-.176.648a283.79,283.79,0,0,0-.469,1.179c-.059.236-.178.413-.235.59h0a2.724,2.724,0,0,1-.295.589.21.21,0,0,1-.058.118.058.058,0,0,1-.059.059,20.04,20.04,0,0,1-5.816,6.955,3.114,3.114,0,0,0-.469.354c-.059.06-.118.06-.118.117a1.265,1.265,0,0,1-.469.3l.058.117h0c.295-.059.588-.059.882-.117h0a14.809,14.809,0,0,0,1.585-.3,1.773,1.773,0,0,0,.471-.117c.117,0,.176-.06.293-.06s.294-.059.411-.059c.117-.058.235-.058.352-.118a35.813,35.813,0,0,0,5.992-2,33.205,33.205,0,0,1-12.808,10.491,32.121,32.121,0,0,0,7.051-1.237,32.941,32.941,0,0,0,19.5-15.618,32.586,32.586,0,0,1-5.582,13.319,37.467,37.467,0,0,0,5.523-4.6,32.967,32.967,0,0,0,8.7-17.622,33.456,33.456,0,0,1,.586,9.961c14.923-20.864,1.235-42.494-4.465-48.21,0-.059-.058-.059-.058-.119v0a3.606,3.606,0,0,1-.059.766,12.069,12.069,0,0,1-.235,1.416c-.117.471-.235.883-.352,1.354-.117.413-.293.885-.471,1.356a12.328,12.328,0,0,1-.645,1.239,8.218,8.218,0,0,1-.764,1.178c-.293.413-.528.766-.823,1.12s-.645.708-1,1.062a5.228,5.228,0,0,0-.588.53c-.176.118-.294.294-.471.413-.352.294-.764.53-1.174.824l-1.235.708a12.824,12.824,0,0,1-1.292.588,8.923,8.923,0,0,1-1.352.413,11.865,11.865,0,0,1-1.409.3l-1.411.177c-.352,0-.645.058-1,.058-.471,0-.94-.058-1.411-.058a11.983,11.983,0,0,1-1.409-.236,12.629,12.629,0,0,1-1.411-.354h0a10.81,10.81,0,0,0,1.352-.177,11.892,11.892,0,0,0,1.411-.3c.469-.117.881-.294,1.35-.411a8.775,8.775,0,0,0,1.292-.59,13.088,13.088,0,0,0,1.235-.708c.411-.294.764-.53,1.175-.825.352-.3.7-.589,1.057-.943.352-.3.647-.648,1-1,.293-.354.586-.766.881-1.12.059-.06.059-.117.117-.236a8.748,8.748,0,0,0,.588-1c.235-.413.412-.825.647-1.238a9.111,9.111,0,0,0,.469-1.354c.118-.413.235-.885.352-1.355.059-.473.176-.943.235-1.416a11.283,11.283,0,0,0,.059-1.414,5.684,5.684,0,0,0-.059-1l-.176-1.414a12.335,12.335,0,0,0-.293-1.415c-.118-.413-.295-.884-.471-1.356a8.7,8.7,0,0,0-.588-1.3l-.7-1.237c-.293-.413-.528-.766-.823-1.12s-.645-.707-.94-1.06l-.528-.531a31.549,31.549,0,0,0-2.878-2,1.44,1.44,0,0,1-.411-.236,5.538,5.538,0,0,1-1.88-.471Z" transform="translate(-1704.415 0)"/></g><script xmlns=""/></svg>