<svg version="1.1" x="0px" y="0px" width="919" height="345" xmlns="http://www.w3.org/2000/svg" xmlns:xlink="http://www.w3.org/1999/xlink" xmlns:a="http://ns.adobe.com/AdobeSVGViewerExtensions/3.0/" xml:space="preserve"><g transform="translate(622.2127106579 20.963765922242) scale(-2.1362351992836 2.1362351992836) rotate(0 77.783332824705 44.841667175293)"><path d="M122.466 11.74c-4.205 0-8.223.797-11.926 2.232l-.004-.008c-.143.049-.813.287-1.9.816-.217.104-.451.223-.7.352a33.094 33.094 0 00-6.759 4.394C94.878 24.381 86.185 33.2 77.525 48.608c-.315.561-.096 1.997.588 2.294l7.386 3.755c.949.432 2.291-.184 2.68-.866a116.378 116.378 0 011.75-2.981c5.992-9.886 13.385-19.638 22.205-24.46.324-.178.631-.385.965-.55a21.07 21.07 0 0111.572-2.091c3.967.266 7.658 1.841 10.816 4.382a21.39 21.39 0 013.992 4.084c3.982 5.132 6.443 12.167 6.443 19.933 0 8.965-3.279 16.957-8.398 22.17 10.691-5.49 18.029-16.625 18.029-29.448.001-18.247-14.843-33.09-33.087-33.09zM85.98 71.786l-4.09-2.079-.76-2.315.959-1.886 1.861-3.664 1.08-2.127c.039-.077.064-.157.092-.236a1.866 1.866 0 00-.912-2.284l-7.731-3.929a1.862 1.862 0 00-1.405-.116 1.866 1.866 0 00-1.115.938l-3.929 7.729a1.875 1.875 0 00.822 2.521l7.729 3.929c.024.013.05.018.074.029l.736 2.242-1.898 3.734-1.953.593-3.436-1.746a.915.915 0 00-1.231.401l-1.92 3.776a.916.916 0 00.401 1.231l3.776 1.919a.915.915 0 001.231-.401l1.659-3.264 1.911-.579 4.611 2.343a1.143 1.143 0 001.539-.501l2.398-4.72a1.139 1.139 0 00-.499-1.538zm-6.764 12.363l-3.24-1.646-.537-.273a.916.916 0 00-1.231.402l-.378.743-1.541 3.032a.915.915 0 00.401 1.231l3.776 1.92a.916.916 0 001.231-.401l1.918-3.776a.912.912 0 00-.399-1.232z" fill="#ffffff"></path><path d="M139.48 32.174c2.639 3.539 4.223 7.91 4.223 12.654 0 11.709-9.527 21.236-21.236 21.236-10.969 0-19.992-8.364-21.096-19.045a21.416 21.416 0 01-.121-1.819c-.004-.125-.021-.246-.021-.372 0-.116.017-.229.019-.344l-.01.013c-2.584 3.419-5.293 7.501-8.033 12.362-.293.521-.588 1.051-.883 1.589a33.218 33.218 0 0018.881 17.48 32.891 32.891 0 0011.264 1.989 32.868 32.868 0 0015.059-3.641c5.119-5.213 8.398-13.205 8.398-22.17-.001-7.765-2.462-14.8-6.444-19.932z" fill="#ffffff"></path><path d="M33.089 77.917c4.203 0 8.222-.797 11.926-2.232l.003.008c.143-.048.813-.287 1.901-.816.216-.104.45-.223.699-.352a33.129 33.129 0 006.76-4.394c6.297-4.854 14.992-13.674 23.65-29.081.316-.562.097-1.997-.587-2.295l-7.387-3.754c-.948-.433-2.291.184-2.68.866a126.521 126.521 0 01-1.749 2.981C59.633 48.733 52.24 58.485 43.42 63.307c-.325.179-.632.386-.966.551a21.082 21.082 0 01-11.571 2.091c-3.968-.267-7.658-1.841-10.817-4.383a21.385 21.385 0 01-3.991-4.084C12.092 52.35 9.631 45.315 9.631 37.55c0-8.966 3.279-16.958 8.398-22.171C7.338 20.871 0 32.005 0 44.829c0 18.245 14.844 33.088 33.089 33.088zM80.013 14.792l3.436 1.746a.916.916 0 001.232-.401l1.918-3.776a.914.914 0 00-.4-1.231l-3.778-1.92a.914.914 0 00-1.23.401l-1.658 3.264-1.912.58-4.611-2.344a1.145 1.145 0 00-1.539.502l-2.398 4.719a1.145 1.145 0 00.502 1.539l4.091 2.079.76 2.315-.959 1.886-1.863 3.665-1.08 2.126c-.04.077-.064.157-.092.237a1.867 1.867 0 00.913 2.283l7.729 3.929c.455.23.957.257 1.406.117.467-.146.877-.47 1.115-.939l3.93-7.729c.469-.923.1-2.052-.822-2.521l-7.73-3.929c-.024-.012-.05-.018-.074-.028l-.736-2.243 1.898-3.734 1.952-.593zm-3.674-9.283l3.239 1.646.537.273a.917.917 0 001.232-.401l.377-.743 1.541-3.033a.914.914 0 00-.4-1.231L79.088.1a.916.916 0 00-1.231.402l-1.919 3.776a.915.915 0 00.401 1.231z" fill="#ffffff"></path><path d="M16.075 57.483c-2.64-3.539-4.223-7.91-4.223-12.654 0-11.709 9.526-21.236 21.236-21.236 10.967 0 19.992 8.364 21.094 19.045.063.601.112 1.205.123 1.82.002.125.019.246.019.371 0 .116-.016.229-.017.345l.01-.014c2.583-3.418 5.292-7.501 8.033-12.362.293-.521.586-1.05.881-1.589a33.27 33.27 0 00-18.879-17.48 32.9 32.9 0 00-11.264-1.989 32.872 32.872 0 00-15.06 3.641C12.909 20.594 9.63 28.586 9.63 37.552c.001 7.764 2.462 14.799 6.445 19.931z" fill="#ffffff"></path></g>
<g transform="translate(340.28332519531 310.88330212015)  scale(0.8553608741682 0.8553608741682)"><text dominant-baseline="auto" alignment-baseline="auto" font-family="Ethnocentric Rg" font-size="62px" fill="#ffffff" letter-spacing="0" xml:space="preserve">TECHNOLOGIES</text></g>
<g transform="translate(20.790142667725 309.90969424999)  scale(0.85282036048751 0.85282036048751)"><text dominant-baseline="auto" alignment-baseline="auto" font-family="Ethnocentric Rg" font-size="62px" fill="#ffffff" letter-spacing="0" xml:space="preserve">KONOHA</text></g>
</svg>